<svg xmlns="http://www.w3.org/2000/svg" xmlns:xlink="http://www.w3.org/1999/xlink" width="217" height="200" viewBox="0 0 217 200">
  <defs>
    <style>
      .cls-1 {
        fill-rule: evenodd;
        fill: url(#linear-gradient);
      }
    </style>
    <linearGradient id="linear-gradient" x1="104.84" y1="200" x2="112.16" gradientUnits="userSpaceOnUse">
      <stop offset="0.261" stop-color="#ecedea"/>
      <stop offset="0.5" stop-color="#f8f8f6"/>
      <stop offset="0.739" stop-color="#dcdbd8"/>
    </linearGradient>
  </defs>
  <path id="Gradient_Fill_1" data-name="Gradient Fill 1" class="cls-1" d="M121,158a30.439,30.439,0,0,0,7-1,21.509,21.509,0,0,0,1-7,13.837,13.837,0,0,1-7-10h3c1.121-2.091,1.434-1.832,2-5-3.008-2.273-2.174-1.3-2-5,9.691-10.4,19.362-33.815,20-53h-2c-2.123,2.338-4.7,4.858-8,6-3.361-4.474-9.2-6.928-17-7V73c-3.992-2.659-5.041-4.737-12-5-3.428,2.77-5.977,2.52-7,8-9.534.078-11.622,4.614-18,7a19.411,19.411,0,0,0-9-7v5c2.608,4.135,1.339,10.863,3,16,3.259,10.081,9.187,18.629,14,27,1.454,2.529,4.094,7.285,3,9-1.121,2.091-1.434,1.832-2,5,2.091,1.121,1.832,1.434,5,2v4c-4.109,2.043-6.767,4.955-7,11,2.919,1.838,2.9,2.739,8,3,0.481,17.185-1.2,28.447-11,35-9.2,6.155-46.51,5.394-59,0-6.086-2.629-13.648-9.537-17-15-8.995-14.662-3.3-35.1,4-47,16.794-27.371,33.168-56.618,50-84C74.8,27.8,80.3,8.542,106,3c3.831-.826,7.559,1.26,10,2,17.54,5.316,20.325,13.2,29,27,19.438,30.918,36.439,64.41,56,96,7.232,11.679,17.756,26.744,10,45-4.7,11.067-16.889,20.484-29,24l-21-1H138C123.992,191.336,120.617,177.512,121,158Z"/>
</svg>
